# xmcd CD database file
#
# Track frame offsets:
#	150
#	62104
#	87991
#	140315
#	183559
#	206020
#	231069
#	258456
#	321228
#
# Disc length: 4642 seconds
#
# Revision: 1
# Processed by: cddbd v1.5.2PL0 Copyright (c) Steve Scherf et al.
# Submitted via: CDex 1.83
#
DISCID=81122009
DTITLE=John Coltrane - My Favorite Things 1-4 Lush Life 1957
DYEAR=1960
DGENRE=Jazz
TTITLE0=My Favorite Things
TTITLE1=Every Time We Say Goodbye
TTITLE2=Summertime
TTITLE3=But Not For Me
TTITLE4=Like Someone In Love
TTITLE5=I Love You
TTITLE6=Trane's Slow Blues
TTITLE7=Lush Life
TTITLE8=I Hear A Rhapsody
EXTD=YEAR: 1960
EXTT0=
EXTT1=
EXTT2=
EXTT3=
EXTT4=
EXTT5=
EXTT6=
EXTT7=
EXTT8=
PLAYORDER=
